<svg xmlns="http://www.w3.org/2000/svg" xmlns:xlink="http://www.w3.org/1999/xlink" width="500" zoomAndPan="magnify" viewBox="0 0 375 374.999991" height="500" preserveAspectRatio="xMidYMid meet" version="1.2"><defs><clipPath id="7033662d70"><path d="M 235 146 L 258 146 L 258 170 L 235 170 Z M 235 146 "/></clipPath><clipPath id="40fa201009"><path d="M 230.585938 150.472656 L 246.542969 135.726562 L 268.394531 159.367188 L 252.4375 174.113281 Z M 230.585938 150.472656 "/></clipPath><clipPath id="c887c2817b"><path d="M 230.585938 150.472656 L 246.542969 135.726562 L 268.394531 159.367188 L 252.4375 174.113281 Z M 230.585938 150.472656 "/></clipPath><clipPath id="b4754c30ef"><path d="M 246 136 L 269 136 L 269 159 L 246 159 Z M 246 136 "/></clipPath><clipPath id="5eda277ae6"><path d="M 242.035156 139.890625 L 257.992188 125.144531 L 279.84375 148.78125 L 263.886719 163.53125 Z M 242.035156 139.890625 "/></clipPath><clipPath id="59bc791a51"><path d="M 242.035156 139.890625 L 257.992188 125.144531 L 279.84375 148.78125 L 263.886719 163.53125 Z M 242.035156 139.890625 "/></clipPath></defs><g id="60e8e080d7"><g clip-rule="nonzero" clip-path="url(#7033662d70)"><g clip-rule="nonzero" clip-path="url(#40fa201009)"><g clip-rule="nonzero" clip-path="url(#c887c2817b)"><path style=" stroke:none;fill-rule:nonzero;fill:#f97316;fill-opacity:1;" d="M 257.476562 147.851562 L 238.25 146.996094 C 234.535156 146.832031 233.90625 154.066406 238.308594 154.1875 L 250.273438 154.511719 L 249.359375 166.550781 C 249.082031 170.214844 256.230469 170.601562 256.433594 166.878906 Z M 257.476562 147.851562 "/></g></g></g><g clip-rule="nonzero" clip-path="url(#b4754c30ef)"><g clip-rule="nonzero" clip-path="url(#5eda277ae6)"><g clip-rule="nonzero" clip-path="url(#59bc791a51)"><path style=" stroke:none;fill-rule:nonzero;fill:#f97316;fill-opacity:1;" d="M 268.925781 137.269531 L 249.699219 136.414062 C 245.984375 136.25 245.355469 143.484375 249.757812 143.605469 L 261.722656 143.925781 L 260.808594 155.96875 C 260.53125 159.632812 267.679688 160.019531 267.882812 156.292969 Z M 268.925781 137.269531 "/></g></g></g><g style="fill:#1e3a8a;fill-opacity:1;"><g transform="translate(97.821998, 193.517672)"><path style="stroke:none" d="M 19.015625 -35.515625 C 20.347656 -35.515625 21.800781 -35.390625 23.375 -35.140625 C 24.957031 -34.898438 26.457031 -34.445312 27.875 -33.78125 C 29.289062 -33.113281 30.453125 -32.128906 31.359375 -30.828125 C 32.265625 -29.523438 32.71875 -27.832031 32.71875 -25.75 C 32.71875 -24.5625 32.429688 -23.335938 31.859375 -22.078125 C 31.285156 -20.816406 30.476562 -19.890625 29.4375 -19.296875 C 31.363281 -18.515625 32.800781 -17.390625 33.75 -15.921875 C 34.695312 -14.453125 35.171875 -12.734375 35.171875 -10.765625 C 35.171875 -8.609375 34.734375 -6.832031 33.859375 -5.4375 C 32.992188 -4.039062 31.832031 -2.941406 30.375 -2.140625 C 28.925781 -1.347656 27.316406 -0.789062 25.546875 -0.46875 C 23.785156 -0.15625 22 0 20.1875 0 L 6.578125 0 C 5.679688 0 4.910156 -0.285156 4.265625 -0.859375 C 3.617188 -1.441406 3.296875 -2.140625 3.296875 -2.953125 L 3.296875 -32.5625 C 3.296875 -33.414062 3.617188 -34.117188 4.265625 -34.671875 C 4.910156 -35.234375 5.679688 -35.515625 6.578125 -35.515625 Z M 19.015625 -30 L 9.75 -30 L 9.75 -21.359375 L 19.171875 -21.359375 C 21.066406 -21.359375 22.726562 -21.703125 24.15625 -22.390625 C 25.59375 -23.078125 26.3125 -24.195312 26.3125 -25.75 C 26.3125 -26.976562 25.894531 -27.890625 25.0625 -28.484375 C 24.226562 -29.078125 23.242188 -29.476562 22.109375 -29.6875 C 20.972656 -29.894531 19.941406 -30 19.015625 -30 Z M 21.796875 -15.828125 L 9.75 -15.828125 L 9.75 -5.515625 L 20.1875 -5.515625 C 21.519531 -5.515625 22.835938 -5.644531 24.140625 -5.90625 C 25.441406 -6.164062 26.507812 -6.675781 27.34375 -7.4375 C 28.175781 -8.195312 28.59375 -9.304688 28.59375 -10.765625 C 28.59375 -12.472656 27.929688 -13.742188 26.609375 -14.578125 C 25.296875 -15.410156 23.691406 -15.828125 21.796875 -15.828125 Z M 21.796875 -15.828125 "/></g></g><g style="fill:#1e3a8a;fill-opacity:1;"><g transform="translate(133.997709, 193.517672)"><path style="stroke:none" d="M 15.046875 -28.375 C 16.054688 -28.375 16.859375 -28.160156 17.453125 -27.734375 C 18.046875 -27.304688 18.34375 -26.609375 18.34375 -25.640625 C 18.34375 -24.753906 18.046875 -24.050781 17.453125 -23.53125 C 16.859375 -23.007812 16.054688 -22.75 15.046875 -22.75 C 12.710938 -22.75 11.070312 -21.910156 10.125 -20.234375 C 9.175781 -18.566406 8.703125 -16.300781 8.703125 -13.4375 L 8.703125 -2.84375 C 8.703125 -2.019531 8.398438 -1.335938 7.796875 -0.796875 C 7.203125 -0.265625 6.476562 0 5.625 0 C 4.664062 0 3.882812 -0.265625 3.28125 -0.796875 C 2.6875 -1.335938 2.390625 -2.019531 2.390625 -2.84375 L 2.390625 -25.53125 C 2.390625 -26.425781 2.734375 -27.125 3.421875 -27.625 C 4.109375 -28.125 4.84375 -28.375 5.625 -28.375 C 6.40625 -28.375 7.113281 -28.128906 7.75 -27.640625 C 8.382812 -27.160156 8.703125 -26.457031 8.703125 -25.53125 L 8.703125 -25.203125 C 9.515625 -26.273438 10.457031 -27.070312 11.53125 -27.59375 C 12.613281 -28.113281 13.785156 -28.375 15.046875 -28.375 Z M 15.046875 -28.375 "/></g></g><g style="fill:#1e3a8a;fill-opacity:1;"><g transform="translate(150.663914, 193.517672)"><path style="stroke:none" d="M 25.921875 -28.375 C 26.890625 -28.375 27.660156 -28.101562 28.234375 -27.5625 C 28.804688 -27.03125 29.09375 -26.335938 29.09375 -25.484375 L 29.09375 -2.90625 C 29.09375 -2.039062 28.804688 -1.335938 28.234375 -0.796875 C 27.660156 -0.265625 26.890625 0 25.921875 0 C 24.992188 0 24.269531 -0.210938 23.75 -0.640625 C 23.226562 -1.066406 22.910156 -1.632812 22.796875 -2.34375 C 21.535156 -1.34375 20.125 -0.609375 18.5625 -0.140625 C 17 0.328125 15.515625 0.5625 14.109375 0.5625 C 11.429688 0.5625 9.113281 -0.0507812 7.15625 -1.28125 C 5.207031 -2.507812 3.710938 -4.238281 2.671875 -6.46875 C 1.628906 -8.695312 1.109375 -11.296875 1.109375 -14.265625 C 1.109375 -17.171875 1.6875 -19.71875 2.84375 -21.90625 C 4 -24.101562 5.609375 -25.820312 7.671875 -27.0625 C 9.734375 -28.3125 12.117188 -28.9375 14.828125 -28.9375 C 16.015625 -28.9375 17.332031 -28.710938 18.78125 -28.265625 C 20.238281 -27.816406 21.578125 -27.109375 22.796875 -26.140625 C 22.953125 -26.816406 23.285156 -27.359375 23.796875 -27.765625 C 24.316406 -28.171875 25.023438 -28.375 25.921875 -28.375 Z M 14.78125 -5.078125 C 16.414062 -5.078125 17.992188 -5.4375 19.515625 -6.15625 C 21.035156 -6.882812 22.113281 -7.953125 22.75 -9.359375 L 22.75 -19.015625 C 22.039062 -20.390625 20.976562 -21.445312 19.5625 -22.1875 C 18.15625 -22.925781 16.726562 -23.296875 15.28125 -23.296875 C 12.9375 -23.296875 11.046875 -22.441406 9.609375 -20.734375 C 8.179688 -19.023438 7.46875 -16.851562 7.46875 -14.21875 C 7.46875 -11.46875 8.132812 -9.253906 9.46875 -7.578125 C 10.8125 -5.910156 12.582031 -5.078125 14.78125 -5.078125 Z M 14.78125 -5.078125 "/></g></g><g style="fill:#1e3a8a;fill-opacity:1;"><g transform="translate(182.881986, 193.517672)"><path style="stroke:none" d="M 18.78125 -28.9375 C 21.382812 -28.9375 23.597656 -28.367188 25.421875 -27.234375 C 27.242188 -26.097656 28.632812 -24.523438 29.59375 -22.515625 C 30.5625 -20.515625 31.046875 -18.175781 31.046875 -15.5 L 31.046875 -2.90625 C 31.046875 -2.039062 30.765625 -1.335938 30.203125 -0.796875 C 29.648438 -0.265625 28.875 0 27.875 0 C 26.945312 0 26.1875 -0.265625 25.59375 -0.796875 C 25 -1.335938 24.703125 -2.039062 24.703125 -2.90625 L 24.703125 -15.609375 C 24.703125 -17.910156 24.148438 -19.773438 23.046875 -21.203125 C 21.953125 -22.640625 20.21875 -23.359375 17.84375 -23.359375 C 17.132812 -23.359375 16.285156 -23.160156 15.296875 -22.765625 C 14.316406 -22.378906 13.351562 -21.796875 12.40625 -21.015625 C 11.457031 -20.234375 10.675781 -19.25 10.0625 -18.0625 C 9.445312 -16.875 9.140625 -15.460938 9.140625 -13.828125 L 9.140625 -2.84375 C 9.140625 -0.945312 8.117188 0 6.078125 0 C 5.109375 0 4.316406 -0.25 3.703125 -0.75 C 3.085938 -1.25 2.78125 -1.945312 2.78125 -2.84375 L 2.78125 -25.53125 C 2.78125 -26.457031 3.101562 -27.160156 3.75 -27.640625 C 4.40625 -28.128906 5.144531 -28.375 5.96875 -28.375 C 6.75 -28.375 7.472656 -28.128906 8.140625 -27.640625 C 8.804688 -27.160156 9.140625 -26.492188 9.140625 -25.640625 L 9.140625 -25.25 C 10.742188 -26.738281 12.398438 -27.722656 14.109375 -28.203125 C 15.816406 -28.691406 17.375 -28.9375 18.78125 -28.9375 Z M 18.78125 -28.9375 "/></g></g><g style="fill:#1e3a8a;fill-opacity:1;"><g transform="translate(216.716557, 193.517672)"><path style="stroke:none" d="M 25.984375 -36.0625 C 26.765625 -36.0625 27.5 -35.835938 28.1875 -35.390625 C 28.875 -34.953125 29.21875 -34.25 29.21875 -33.28125 L 29.21875 -2.84375 C 29.21875 -0.945312 28.140625 0 25.984375 0 C 24.046875 0 23.039062 -0.890625 22.96875 -2.671875 C 21.78125 -1.628906 20.441406 -0.835938 18.953125 -0.296875 C 17.460938 0.234375 16.050781 0.5 14.71875 0.5 C 11.925781 0.5 9.515625 -0.128906 7.484375 -1.390625 C 5.460938 -2.660156 3.910156 -4.425781 2.828125 -6.6875 C 1.753906 -8.957031 1.21875 -11.5625 1.21875 -14.5 C 1.21875 -17.320312 1.796875 -19.8125 2.953125 -21.96875 C 4.109375 -24.125 5.71875 -25.820312 7.78125 -27.0625 C 9.84375 -28.3125 12.226562 -28.9375 14.9375 -28.9375 C 16.164062 -28.9375 17.484375 -28.691406 18.890625 -28.203125 C 20.304688 -27.722656 21.628906 -27 22.859375 -26.03125 L 22.859375 -33.28125 C 22.859375 -34.25 23.179688 -34.953125 23.828125 -35.390625 C 24.484375 -35.835938 25.203125 -36.0625 25.984375 -36.0625 Z M 14.890625 -5.125 C 16.742188 -5.125 18.421875 -5.539062 19.921875 -6.375 C 21.429688 -7.21875 22.445312 -8.4375 22.96875 -10.03125 L 22.90625 -18.625 C 22.28125 -20.144531 21.25 -21.300781 19.8125 -22.09375 C 18.382812 -22.894531 16.910156 -23.296875 15.390625 -23.296875 C 13.046875 -23.296875 11.15625 -22.453125 9.71875 -20.765625 C 8.289062 -19.078125 7.578125 -16.96875 7.578125 -14.4375 C 7.578125 -11.726562 8.242188 -9.5 9.578125 -7.75 C 10.921875 -6 12.691406 -5.125 14.890625 -5.125 Z M 14.890625 -5.125 "/></g></g><g style="fill:#1e3a8a;fill-opacity:1;"><g transform="translate(91.087692, 245.295322)"><path style="stroke:none" d="M 0.953125 -6.140625 C 0.953125 -7.347656 1.203125 -8.425781 1.703125 -9.375 C 2.210938 -10.332031 2.914062 -11.078125 3.8125 -11.609375 C 4.707031 -12.148438 5.707031 -12.421875 6.8125 -12.421875 C 8.21875 -12.421875 9.398438 -12.09375 10.359375 -11.4375 C 11.316406 -10.789062 12.019531 -9.878906 12.46875 -8.703125 L 11.546875 -8.703125 C 11.203125 -9.628906 10.625 -10.363281 9.8125 -10.90625 C 9 -11.457031 8 -11.734375 6.8125 -11.734375 C 5.875 -11.734375 5.015625 -11.503906 4.234375 -11.046875 C 3.460938 -10.597656 2.851562 -9.953125 2.40625 -9.109375 C 1.96875 -8.265625 1.75 -7.273438 1.75 -6.140625 C 1.75 -5.015625 1.96875 -4.035156 2.40625 -3.203125 C 2.851562 -2.367188 3.460938 -1.722656 4.234375 -1.265625 C 5.015625 -0.804688 5.875 -0.578125 6.8125 -0.578125 C 8 -0.578125 9 -0.847656 9.8125 -1.390625 C 10.625 -1.929688 11.203125 -2.671875 11.546875 -3.609375 L 12.46875 -3.609375 C 12.019531 -2.429688 11.316406 -1.515625 10.359375 -0.859375 C 9.398438 -0.203125 8.21875 0.125 6.8125 0.125 C 5.707031 0.125 4.707031 -0.140625 3.8125 -0.671875 C 2.914062 -1.203125 2.210938 -1.941406 1.703125 -2.890625 C 1.203125 -3.847656 0.953125 -4.929688 0.953125 -6.140625 Z M 0.953125 -6.140625 "/></g></g><g style="fill:#1e3a8a;fill-opacity:1;"><g transform="translate(103.923591, 245.295322)"><path style="stroke:none" d="M 2.21875 -7.5625 C 2.457031 -8.257812 2.875 -8.789062 3.46875 -9.15625 C 4.0625 -9.53125 4.820312 -9.71875 5.75 -9.71875 L 5.75 -8.890625 L 5.484375 -8.890625 C 4.546875 -8.890625 3.765625 -8.625 3.140625 -8.09375 C 2.523438 -7.5625 2.21875 -6.691406 2.21875 -5.484375 L 2.21875 0 L 1.4375 0 L 1.4375 -9.515625 L 2.21875 -9.515625 Z M 2.21875 -7.5625 "/></g></g><g style="fill:#1e3a8a;fill-opacity:1;"><g transform="translate(109.394531, 245.295322)"><path style="stroke:none" d="M 10.015625 -5.40625 C 10.015625 -4.976562 10 -4.660156 9.96875 -4.453125 L 1.75 -4.453125 C 1.769531 -3.597656 1.957031 -2.878906 2.3125 -2.296875 C 2.664062 -1.710938 3.128906 -1.273438 3.703125 -0.984375 C 4.273438 -0.691406 4.898438 -0.546875 5.578125 -0.546875 C 6.515625 -0.546875 7.296875 -0.773438 7.921875 -1.234375 C 8.554688 -1.691406 8.953125 -2.320312 9.109375 -3.125 L 9.9375 -3.125 C 9.75 -2.15625 9.269531 -1.367188 8.5 -0.765625 C 7.726562 -0.160156 6.753906 0.140625 5.578125 0.140625 C 4.691406 0.140625 3.894531 -0.0546875 3.1875 -0.453125 C 2.488281 -0.847656 1.941406 -1.414062 1.546875 -2.15625 C 1.148438 -2.90625 0.953125 -3.773438 0.953125 -4.765625 C 0.953125 -5.765625 1.144531 -6.628906 1.53125 -7.359375 C 1.925781 -8.097656 2.472656 -8.660156 3.171875 -9.046875 C 3.867188 -9.441406 4.671875 -9.640625 5.578125 -9.640625 C 6.484375 -9.640625 7.269531 -9.441406 7.9375 -9.046875 C 8.613281 -8.660156 9.128906 -8.140625 9.484375 -7.484375 C 9.835938 -6.835938 10.015625 -6.144531 10.015625 -5.40625 Z M 9.21875 -5.109375 C 9.257812 -5.941406 9.113281 -6.648438 8.78125 -7.234375 C 8.445312 -7.816406 7.992188 -8.25 7.421875 -8.53125 C 6.847656 -8.820312 6.226562 -8.96875 5.5625 -8.96875 C 4.894531 -8.96875 4.273438 -8.820312 3.703125 -8.53125 C 3.140625 -8.25 2.675781 -7.816406 2.3125 -7.234375 C 1.957031 -6.648438 1.769531 -5.941406 1.75 -5.109375 Z M 9.21875 -5.109375 "/></g></g><g style="fill:#1e3a8a;fill-opacity:1;"><g transform="translate(119.687772, 245.295322)"><path style="stroke:none" d="M 0.953125 -4.765625 C 0.953125 -5.742188 1.144531 -6.601562 1.53125 -7.34375 C 1.925781 -8.082031 2.46875 -8.648438 3.15625 -9.046875 C 3.851562 -9.441406 4.648438 -9.640625 5.546875 -9.640625 C 6.546875 -9.640625 7.394531 -9.394531 8.09375 -8.90625 C 8.800781 -8.414062 9.296875 -7.789062 9.578125 -7.03125 L 9.578125 -9.515625 L 10.359375 -9.515625 L 10.359375 0 L 9.578125 0 L 9.578125 -2.5 C 9.296875 -1.726562 8.800781 -1.09375 8.09375 -0.59375 C 7.382812 -0.101562 6.535156 0.140625 5.546875 0.140625 C 4.648438 0.140625 3.851562 -0.0546875 3.15625 -0.453125 C 2.46875 -0.859375 1.925781 -1.429688 1.53125 -2.171875 C 1.144531 -2.921875 0.953125 -3.785156 0.953125 -4.765625 Z M 9.578125 -4.765625 C 9.578125 -5.597656 9.398438 -6.332031 9.046875 -6.96875 C 8.703125 -7.601562 8.234375 -8.09375 7.640625 -8.4375 C 7.046875 -8.78125 6.378906 -8.953125 5.640625 -8.953125 C 4.867188 -8.953125 4.191406 -8.785156 3.609375 -8.453125 C 3.023438 -8.117188 2.566406 -7.632812 2.234375 -7 C 1.910156 -6.375 1.75 -5.628906 1.75 -4.765625 C 1.75 -3.898438 1.910156 -3.148438 2.234375 -2.515625 C 2.566406 -1.890625 3.023438 -1.40625 3.609375 -1.0625 C 4.203125 -0.726562 4.878906 -0.5625 5.640625 -0.5625 C 6.378906 -0.5625 7.050781 -0.734375 7.65625 -1.078125 C 8.257812 -1.421875 8.726562 -1.910156 9.0625 -2.546875 C 9.40625 -3.179688 9.578125 -3.921875 9.578125 -4.765625 Z M 9.578125 -4.765625 "/></g></g><g style="fill:#1e3a8a;fill-opacity:1;"><g transform="translate(130.822724, 245.295322)"><path style="stroke:none" d="M 2.609375 -8.828125 L 2.609375 -2.546875 C 2.609375 -1.835938 2.738281 -1.351562 3 -1.09375 C 3.257812 -0.832031 3.710938 -0.703125 4.359375 -0.703125 L 5.4375 -0.703125 L 5.4375 0 L 4.25 0 C 3.414062 0 2.800781 -0.191406 2.40625 -0.578125 C 2.019531 -0.972656 1.828125 -1.628906 1.828125 -2.546875 L 1.828125 -8.828125 L 0.390625 -8.828125 L 0.390625 -9.515625 L 1.828125 -9.515625 L 1.828125 -11.9375 L 2.609375 -11.9375 L 2.609375 -9.515625 L 5.4375 -9.515625 L 5.4375 -8.828125 Z M 2.609375 -8.828125 "/></g></g><g style="fill:#1e3a8a;fill-opacity:1;"><g transform="translate(136.241061, 245.295322)"><path style="stroke:none" d="M 1.84375 -11.640625 C 1.65625 -11.640625 1.492188 -11.703125 1.359375 -11.828125 C 1.234375 -11.953125 1.171875 -12.117188 1.171875 -12.328125 C 1.171875 -12.523438 1.234375 -12.6875 1.359375 -12.8125 C 1.492188 -12.945312 1.65625 -13.015625 1.84375 -13.015625 C 2.03125 -13.015625 2.1875 -12.945312 2.3125 -12.8125 C 2.4375 -12.6875 2.5 -12.523438 2.5 -12.328125 C 2.5 -12.117188 2.4375 -11.953125 2.3125 -11.828125 C 2.1875 -11.703125 2.03125 -11.640625 1.84375 -11.640625 Z M 2.21875 -9.515625 L 2.21875 0 L 1.4375 0 L 1.4375 -9.515625 Z M 2.21875 -9.515625 "/></g></g><g style="fill:#1e3a8a;fill-opacity:1;"><g transform="translate(139.257016, 245.295322)"><path style="stroke:none" d="M 5.734375 -9.71875 C 6.867188 -9.71875 7.789062 -9.367188 8.5 -8.671875 C 9.21875 -7.972656 9.578125 -6.941406 9.578125 -5.578125 L 9.578125 0 L 8.796875 0 L 8.796875 -5.515625 C 8.796875 -6.648438 8.507812 -7.519531 7.9375 -8.125 C 7.363281 -8.726562 6.585938 -9.03125 5.609375 -9.03125 C 4.578125 -9.03125 3.753906 -8.703125 3.140625 -8.046875 C 2.523438 -7.390625 2.21875 -6.421875 2.21875 -5.140625 L 2.21875 0 L 1.4375 0 L 1.4375 -9.515625 L 2.21875 -9.515625 L 2.21875 -7.5 C 2.488281 -8.21875 2.9375 -8.765625 3.5625 -9.140625 C 4.1875 -9.523438 4.910156 -9.71875 5.734375 -9.71875 Z M 5.734375 -9.71875 "/></g></g><g style="fill:#1e3a8a;fill-opacity:1;"><g transform="translate(149.515187, 245.295322)"><path style="stroke:none" d="M 5.546875 -9.640625 C 6.546875 -9.640625 7.394531 -9.394531 8.09375 -8.90625 C 8.800781 -8.425781 9.296875 -7.804688 9.578125 -7.046875 L 9.578125 -9.515625 L 10.359375 -9.515625 L 10.359375 0.296875 C 10.359375 1.171875 10.164062 1.9375 9.78125 2.59375 C 9.394531 3.257812 8.875 3.769531 8.21875 4.125 C 7.5625 4.476562 6.832031 4.65625 6.03125 4.65625 C 4.84375 4.65625 3.851562 4.367188 3.0625 3.796875 C 2.28125 3.222656 1.769531 2.453125 1.53125 1.484375 L 2.3125 1.484375 C 2.550781 2.242188 2.988281 2.847656 3.625 3.296875 C 4.269531 3.753906 5.070312 3.984375 6.03125 3.984375 C 6.695312 3.984375 7.296875 3.832031 7.828125 3.53125 C 8.367188 3.226562 8.796875 2.800781 9.109375 2.25 C 9.421875 1.695312 9.578125 1.046875 9.578125 0.296875 L 9.578125 -2.484375 C 9.296875 -1.722656 8.800781 -1.09375 8.09375 -0.59375 C 7.382812 -0.101562 6.535156 0.140625 5.546875 0.140625 C 4.648438 0.140625 3.851562 -0.0546875 3.15625 -0.453125 C 2.46875 -0.859375 1.925781 -1.429688 1.53125 -2.171875 C 1.144531 -2.921875 0.953125 -3.785156 0.953125 -4.765625 C 0.953125 -5.742188 1.144531 -6.601562 1.53125 -7.34375 C 1.925781 -8.082031 2.46875 -8.648438 3.15625 -9.046875 C 3.851562 -9.441406 4.648438 -9.640625 5.546875 -9.640625 Z M 9.578125 -4.765625 C 9.578125 -5.597656 9.398438 -6.332031 9.046875 -6.96875 C 8.703125 -7.601562 8.234375 -8.09375 7.640625 -8.4375 C 7.046875 -8.78125 6.378906 -8.953125 5.640625 -8.953125 C 4.867188 -8.953125 4.191406 -8.785156 3.609375 -8.453125 C 3.023438 -8.117188 2.566406 -7.632812 2.234375 -7 C 1.910156 -6.375 1.75 -5.628906 1.75 -4.765625 C 1.75 -3.898438 1.910156 -3.148438 2.234375 -2.515625 C 2.566406 -1.890625 3.023438 -1.40625 3.609375 -1.0625 C 4.203125 -0.726562 4.878906 -0.5625 5.640625 -0.5625 C 6.378906 -0.5625 7.050781 -0.734375 7.65625 -1.078125 C 8.257812 -1.421875 8.726562 -1.910156 9.0625 -2.546875 C 9.40625 -3.179688 9.578125 -3.921875 9.578125 -4.765625 Z M 9.578125 -4.765625 "/></g></g><g style="fill:#1e3a8a;fill-opacity:1;"><g transform="translate(160.65014, 245.295322)"><path style="stroke:none" d=""/></g></g><g style="fill:#1e3a8a;fill-opacity:1;"><g transform="translate(164.928663, 245.295322)"><path style="stroke:none" d="M 11.546875 -8.671875 C 11.203125 -9.597656 10.625 -10.332031 9.8125 -10.875 C 9 -11.425781 8.035156 -11.703125 6.921875 -11.703125 C 5.953125 -11.703125 5.078125 -11.472656 4.296875 -11.015625 C 3.515625 -10.566406 2.894531 -9.921875 2.4375 -9.078125 C 1.976562 -8.234375 1.75 -7.253906 1.75 -6.140625 C 1.75 -5.015625 1.976562 -4.03125 2.4375 -3.1875 C 2.894531 -2.34375 3.515625 -1.695312 4.296875 -1.25 C 5.078125 -0.800781 5.953125 -0.578125 6.921875 -0.578125 C 7.859375 -0.578125 8.707031 -0.785156 9.46875 -1.203125 C 10.226562 -1.628906 10.832031 -2.226562 11.28125 -3 C 11.738281 -3.78125 11.992188 -4.691406 12.046875 -5.734375 L 6.5625 -5.734375 L 6.5625 -6.40625 L 12.84375 -6.40625 L 12.84375 -5.875 C 12.8125 -4.726562 12.535156 -3.695312 12.015625 -2.78125 C 11.503906 -1.875 10.804688 -1.160156 9.921875 -0.640625 C 9.035156 -0.128906 8.035156 0.125 6.921875 0.125 C 5.785156 0.125 4.757812 -0.140625 3.84375 -0.671875 C 2.9375 -1.203125 2.226562 -1.941406 1.71875 -2.890625 C 1.207031 -3.847656 0.953125 -4.929688 0.953125 -6.140625 C 0.953125 -7.347656 1.207031 -8.425781 1.71875 -9.375 C 2.226562 -10.332031 2.9375 -11.078125 3.84375 -11.609375 C 4.757812 -12.140625 5.785156 -12.40625 6.921875 -12.40625 C 8.242188 -12.40625 9.382812 -12.078125 10.34375 -11.421875 C 11.3125 -10.765625 12.019531 -9.847656 12.46875 -8.671875 Z M 11.546875 -8.671875 "/></g></g><g style="fill:#1e3a8a;fill-opacity:1;"><g transform="translate(178.062663, 245.295322)"><path style="stroke:none" d="M 2.21875 -12.96875 L 2.21875 0 L 1.4375 0 L 1.4375 -12.96875 Z M 2.21875 -12.96875 "/></g></g><g style="fill:#1e3a8a;fill-opacity:1;"><g transform="translate(181.078618, 245.295322)"><path style="stroke:none" d="M 5.625 0.140625 C 4.738281 0.140625 3.9375 -0.0546875 3.21875 -0.453125 C 2.507812 -0.847656 1.953125 -1.414062 1.546875 -2.15625 C 1.148438 -2.90625 0.953125 -3.773438 0.953125 -4.765625 C 0.953125 -5.742188 1.15625 -6.601562 1.5625 -7.34375 C 1.96875 -8.09375 2.53125 -8.660156 3.25 -9.046875 C 3.96875 -9.441406 4.769531 -9.640625 5.65625 -9.640625 C 6.550781 -9.640625 7.351562 -9.441406 8.0625 -9.046875 C 8.78125 -8.660156 9.335938 -8.097656 9.734375 -7.359375 C 10.140625 -6.628906 10.34375 -5.765625 10.34375 -4.765625 C 10.34375 -3.773438 10.132812 -2.90625 9.71875 -2.15625 C 9.3125 -1.414062 8.75 -0.847656 8.03125 -0.453125 C 7.3125 -0.0546875 6.507812 0.140625 5.625 0.140625 Z M 5.625 -0.5625 C 6.3125 -0.5625 6.957031 -0.710938 7.5625 -1.015625 C 8.164062 -1.328125 8.644531 -1.800781 9 -2.4375 C 9.363281 -3.070312 9.546875 -3.847656 9.546875 -4.765625 C 9.546875 -5.679688 9.363281 -6.453125 9 -7.078125 C 8.644531 -7.710938 8.164062 -8.179688 7.5625 -8.484375 C 6.96875 -8.796875 6.328125 -8.953125 5.640625 -8.953125 C 4.953125 -8.953125 4.3125 -8.796875 3.71875 -8.484375 C 3.132812 -8.179688 2.660156 -7.710938 2.296875 -7.078125 C 1.929688 -6.453125 1.75 -5.679688 1.75 -4.765625 C 1.75 -3.847656 1.925781 -3.070312 2.28125 -2.4375 C 2.644531 -1.800781 3.117188 -1.328125 3.703125 -1.015625 C 4.296875 -0.710938 4.9375 -0.5625 5.625 -0.5625 Z M 5.625 -0.5625 "/></g></g><g style="fill:#1e3a8a;fill-opacity:1;"><g transform="translate(191.722562, 245.295322)"><path style="stroke:none" d="M 2.21875 -7.015625 C 2.519531 -7.785156 3.019531 -8.414062 3.71875 -8.90625 C 4.414062 -9.394531 5.265625 -9.640625 6.265625 -9.640625 C 7.148438 -9.640625 7.9375 -9.441406 8.625 -9.046875 C 9.320312 -8.648438 9.867188 -8.082031 10.265625 -7.34375 C 10.660156 -6.601562 10.859375 -5.742188 10.859375 -4.765625 C 10.859375 -3.785156 10.660156 -2.921875 10.265625 -2.171875 C 9.867188 -1.429688 9.320312 -0.859375 8.625 -0.453125 C 7.9375 -0.0546875 7.148438 0.140625 6.265625 0.140625 C 5.265625 0.140625 4.410156 -0.101562 3.703125 -0.59375 C 2.992188 -1.082031 2.5 -1.710938 2.21875 -2.484375 L 2.21875 0 L 1.4375 0 L 1.4375 -12.96875 L 2.21875 -12.96875 Z M 10.046875 -4.765625 C 10.046875 -5.628906 9.878906 -6.375 9.546875 -7 C 9.222656 -7.632812 8.765625 -8.117188 8.171875 -8.453125 C 7.585938 -8.785156 6.910156 -8.953125 6.140625 -8.953125 C 5.398438 -8.953125 4.734375 -8.78125 4.140625 -8.4375 C 3.546875 -8.09375 3.078125 -7.601562 2.734375 -6.96875 C 2.390625 -6.332031 2.21875 -5.597656 2.21875 -4.765625 C 2.21875 -3.921875 2.390625 -3.179688 2.734375 -2.546875 C 3.078125 -1.910156 3.546875 -1.421875 4.140625 -1.078125 C 4.734375 -0.734375 5.398438 -0.5625 6.140625 -0.5625 C 6.910156 -0.5625 7.585938 -0.726562 8.171875 -1.0625 C 8.765625 -1.40625 9.222656 -1.890625 9.546875 -2.515625 C 9.878906 -3.148438 10.046875 -3.898438 10.046875 -4.765625 Z M 10.046875 -4.765625 "/></g></g><g style="fill:#1e3a8a;fill-opacity:1;"><g transform="translate(202.857515, 245.295322)"><path style="stroke:none" d="M 0.953125 -4.765625 C 0.953125 -5.742188 1.144531 -6.601562 1.53125 -7.34375 C 1.925781 -8.082031 2.46875 -8.648438 3.15625 -9.046875 C 3.851562 -9.441406 4.648438 -9.640625 5.546875 -9.640625 C 6.546875 -9.640625 7.394531 -9.394531 8.09375 -8.90625 C 8.800781 -8.414062 9.296875 -7.789062 9.578125 -7.03125 L 9.578125 -9.515625 L 10.359375 -9.515625 L 10.359375 0 L 9.578125 0 L 9.578125 -2.5 C 9.296875 -1.726562 8.800781 -1.09375 8.09375 -0.59375 C 7.382812 -0.101562 6.535156 0.140625 5.546875 0.140625 C 4.648438 0.140625 3.851562 -0.0546875 3.15625 -0.453125 C 2.46875 -0.859375 1.925781 -1.429688 1.53125 -2.171875 C 1.144531 -2.921875 0.953125 -3.785156 0.953125 -4.765625 Z M 9.578125 -4.765625 C 9.578125 -5.597656 9.398438 -6.332031 9.046875 -6.96875 C 8.703125 -7.601562 8.234375 -8.09375 7.640625 -8.4375 C 7.046875 -8.78125 6.378906 -8.953125 5.640625 -8.953125 C 4.867188 -8.953125 4.191406 -8.785156 3.609375 -8.453125 C 3.023438 -8.117188 2.566406 -7.632812 2.234375 -7 C 1.910156 -6.375 1.75 -5.628906 1.75 -4.765625 C 1.75 -3.898438 1.910156 -3.148438 2.234375 -2.515625 C 2.566406 -1.890625 3.023438 -1.40625 3.609375 -1.0625 C 4.203125 -0.726562 4.878906 -0.5625 5.640625 -0.5625 C 6.378906 -0.5625 7.050781 -0.734375 7.65625 -1.078125 C 8.257812 -1.421875 8.726562 -1.910156 9.0625 -2.546875 C 9.40625 -3.179688 9.578125 -3.921875 9.578125 -4.765625 Z M 9.578125 -4.765625 "/></g></g><g style="fill:#1e3a8a;fill-opacity:1;"><g transform="translate(213.992468, 245.295322)"><path style="stroke:none" d="M 2.21875 -12.96875 L 2.21875 0 L 1.4375 0 L 1.4375 -12.96875 Z M 2.21875 -12.96875 "/></g></g><g style="fill:#1e3a8a;fill-opacity:1;"><g transform="translate(217.008423, 245.295322)"><path style="stroke:none" d=""/></g></g><g style="fill:#1e3a8a;fill-opacity:1;"><g transform="translate(221.286946, 245.295322)"><path style="stroke:none" d="M 6.75 -6.359375 C 7.457031 -6.234375 8.054688 -5.882812 8.546875 -5.3125 C 9.035156 -4.738281 9.28125 -4.066406 9.28125 -3.296875 C 9.28125 -2.660156 9.128906 -2.09375 8.828125 -1.59375 C 8.523438 -1.101562 8.078125 -0.710938 7.484375 -0.421875 C 6.898438 -0.140625 6.1875 0 5.34375 0 L 1.4375 0 L 1.4375 -12.3125 L 5.28125 -12.3125 C 6.507812 -12.3125 7.4375 -12.023438 8.0625 -11.453125 C 8.6875 -10.890625 9 -10.15625 9 -9.25 C 9 -8.46875 8.785156 -7.832031 8.359375 -7.34375 C 7.941406 -6.863281 7.40625 -6.535156 6.75 -6.359375 Z M 2.21875 -6.71875 L 5.3125 -6.71875 C 6.238281 -6.71875 6.945312 -6.9375 7.4375 -7.375 C 7.9375 -7.8125 8.1875 -8.414062 8.1875 -9.1875 C 8.1875 -9.9375 7.941406 -10.523438 7.453125 -10.953125 C 6.960938 -11.390625 6.21875 -11.609375 5.21875 -11.609375 L 2.21875 -11.609375 Z M 5.296875 -0.6875 C 6.285156 -0.6875 7.0625 -0.921875 7.625 -1.390625 C 8.195312 -1.867188 8.484375 -2.519531 8.484375 -3.34375 C 8.484375 -4.164062 8.191406 -4.816406 7.609375 -5.296875 C 7.035156 -5.785156 6.242188 -6.03125 5.234375 -6.03125 L 2.21875 -6.03125 L 2.21875 -0.6875 Z M 5.296875 -0.6875 "/></g></g><g style="fill:#1e3a8a;fill-opacity:1;"><g transform="translate(230.773543, 245.295322)"><path style="stroke:none" d="M 2.21875 -7.5625 C 2.457031 -8.257812 2.875 -8.789062 3.46875 -9.15625 C 4.0625 -9.53125 4.820312 -9.71875 5.75 -9.71875 L 5.75 -8.890625 L 5.484375 -8.890625 C 4.546875 -8.890625 3.765625 -8.625 3.140625 -8.09375 C 2.523438 -7.5625 2.21875 -6.691406 2.21875 -5.484375 L 2.21875 0 L 1.4375 0 L 1.4375 -9.515625 L 2.21875 -9.515625 Z M 2.21875 -7.5625 "/></g></g><g style="fill:#1e3a8a;fill-opacity:1;"><g transform="translate(236.244483, 245.295322)"><path style="stroke:none" d="M 0.953125 -4.765625 C 0.953125 -5.742188 1.144531 -6.601562 1.53125 -7.34375 C 1.925781 -8.082031 2.46875 -8.648438 3.15625 -9.046875 C 3.851562 -9.441406 4.648438 -9.640625 5.546875 -9.640625 C 6.546875 -9.640625 7.394531 -9.394531 8.09375 -8.90625 C 8.800781 -8.414062 9.296875 -7.789062 9.578125 -7.03125 L 9.578125 -9.515625 L 10.359375 -9.515625 L 10.359375 0 L 9.578125 0 L 9.578125 -2.5 C 9.296875 -1.726562 8.800781 -1.09375 8.09375 -0.59375 C 7.382812 -0.101562 6.535156 0.140625 5.546875 0.140625 C 4.648438 0.140625 3.851562 -0.0546875 3.15625 -0.453125 C 2.46875 -0.859375 1.925781 -1.429688 1.53125 -2.171875 C 1.144531 -2.921875 0.953125 -3.785156 0.953125 -4.765625 Z M 9.578125 -4.765625 C 9.578125 -5.597656 9.398438 -6.332031 9.046875 -6.96875 C 8.703125 -7.601562 8.234375 -8.09375 7.640625 -8.4375 C 7.046875 -8.78125 6.378906 -8.953125 5.640625 -8.953125 C 4.867188 -8.953125 4.191406 -8.785156 3.609375 -8.453125 C 3.023438 -8.117188 2.566406 -7.632812 2.234375 -7 C 1.910156 -6.375 1.75 -5.628906 1.75 -4.765625 C 1.75 -3.898438 1.910156 -3.148438 2.234375 -2.515625 C 2.566406 -1.890625 3.023438 -1.40625 3.609375 -1.0625 C 4.203125 -0.726562 4.878906 -0.5625 5.640625 -0.5625 C 6.378906 -0.5625 7.050781 -0.734375 7.65625 -1.078125 C 8.257812 -1.421875 8.726562 -1.910156 9.0625 -2.546875 C 9.40625 -3.179688 9.578125 -3.921875 9.578125 -4.765625 Z M 9.578125 -4.765625 "/></g></g><g style="fill:#1e3a8a;fill-opacity:1;"><g transform="translate(247.379436, 245.295322)"><path style="stroke:none" d="M 5.734375 -9.71875 C 6.867188 -9.71875 7.789062 -9.367188 8.5 -8.671875 C 9.21875 -7.972656 9.578125 -6.941406 9.578125 -5.578125 L 9.578125 0 L 8.796875 0 L 8.796875 -5.515625 C 8.796875 -6.648438 8.507812 -7.519531 7.9375 -8.125 C 7.363281 -8.726562 6.585938 -9.03125 5.609375 -9.03125 C 4.578125 -9.03125 3.753906 -8.703125 3.140625 -8.046875 C 2.523438 -7.390625 2.21875 -6.421875 2.21875 -5.140625 L 2.21875 0 L 1.4375 0 L 1.4375 -9.515625 L 2.21875 -9.515625 L 2.21875 -7.5 C 2.488281 -8.21875 2.9375 -8.765625 3.5625 -9.140625 C 4.1875 -9.523438 4.910156 -9.71875 5.734375 -9.71875 Z M 5.734375 -9.71875 "/></g></g><g style="fill:#1e3a8a;fill-opacity:1;"><g transform="translate(257.637607, 245.295322)"><path style="stroke:none" d="M 0.953125 -4.765625 C 0.953125 -5.742188 1.144531 -6.601562 1.53125 -7.34375 C 1.925781 -8.082031 2.46875 -8.648438 3.15625 -9.046875 C 3.851562 -9.441406 4.648438 -9.640625 5.546875 -9.640625 C 6.515625 -9.640625 7.351562 -9.394531 8.0625 -8.90625 C 8.78125 -8.425781 9.285156 -7.800781 9.578125 -7.03125 L 9.578125 -12.96875 L 10.359375 -12.96875 L 10.359375 0 L 9.578125 0 L 9.578125 -2.53125 C 9.296875 -1.738281 8.800781 -1.09375 8.09375 -0.59375 C 7.394531 -0.101562 6.546875 0.140625 5.546875 0.140625 C 4.648438 0.140625 3.851562 -0.0546875 3.15625 -0.453125 C 2.46875 -0.859375 1.925781 -1.429688 1.53125 -2.171875 C 1.144531 -2.921875 0.953125 -3.785156 0.953125 -4.765625 Z M 9.578125 -4.765625 C 9.578125 -5.597656 9.398438 -6.332031 9.046875 -6.96875 C 8.703125 -7.601562 8.234375 -8.09375 7.640625 -8.4375 C 7.046875 -8.78125 6.378906 -8.953125 5.640625 -8.953125 C 4.867188 -8.953125 4.191406 -8.785156 3.609375 -8.453125 C 3.023438 -8.117188 2.566406 -7.632812 2.234375 -7 C 1.910156 -6.375 1.75 -5.628906 1.75 -4.765625 C 1.75 -3.898438 1.910156 -3.148438 2.234375 -2.515625 C 2.566406 -1.890625 3.023438 -1.40625 3.609375 -1.0625 C 4.203125 -0.726562 4.878906 -0.5625 5.640625 -0.5625 C 6.378906 -0.5625 7.050781 -0.734375 7.65625 -1.078125 C 8.257812 -1.421875 8.726562 -1.910156 9.0625 -2.546875 C 9.40625 -3.179688 9.578125 -3.921875 9.578125 -4.765625 Z M 9.578125 -4.765625 "/></g></g><g style="fill:#1e3a8a;fill-opacity:1;"><g transform="translate(268.77256, 245.295322)"><path style="stroke:none" d="M 4.609375 0.140625 C 3.546875 0.140625 2.675781 -0.09375 2 -0.5625 C 1.332031 -1.03125 0.957031 -1.695312 0.875 -2.5625 L 1.6875 -2.5625 C 1.738281 -1.9375 2.019531 -1.441406 2.53125 -1.078125 C 3.039062 -0.722656 3.734375 -0.546875 4.609375 -0.546875 C 5.335938 -0.546875 5.914062 -0.726562 6.34375 -1.09375 C 6.769531 -1.457031 6.984375 -1.910156 6.984375 -2.453125 C 6.984375 -2.828125 6.867188 -3.132812 6.640625 -3.375 C 6.410156 -3.613281 6.125 -3.796875 5.78125 -3.921875 C 5.445312 -4.054688 4.988281 -4.195312 4.40625 -4.34375 C 3.695312 -4.53125 3.125 -4.710938 2.6875 -4.890625 C 2.257812 -5.078125 1.894531 -5.351562 1.59375 -5.71875 C 1.289062 -6.082031 1.140625 -6.566406 1.140625 -7.171875 C 1.140625 -7.617188 1.273438 -8.03125 1.546875 -8.40625 C 1.816406 -8.78125 2.191406 -9.078125 2.671875 -9.296875 C 3.148438 -9.523438 3.691406 -9.640625 4.296875 -9.640625 C 5.285156 -9.640625 6.085938 -9.390625 6.703125 -8.890625 C 7.316406 -8.398438 7.648438 -7.71875 7.703125 -6.84375 L 6.90625 -6.84375 C 6.875 -7.46875 6.628906 -7.976562 6.171875 -8.375 C 5.710938 -8.769531 5.082031 -8.96875 4.28125 -8.96875 C 3.601562 -8.96875 3.039062 -8.789062 2.59375 -8.4375 C 2.144531 -8.09375 1.921875 -7.671875 1.921875 -7.171875 C 1.921875 -6.722656 2.046875 -6.363281 2.296875 -6.09375 C 2.554688 -5.820312 2.867188 -5.609375 3.234375 -5.453125 C 3.597656 -5.304688 4.085938 -5.15625 4.703125 -5 C 5.367188 -4.820312 5.898438 -4.644531 6.296875 -4.46875 C 6.703125 -4.300781 7.046875 -4.054688 7.328125 -3.734375 C 7.609375 -3.421875 7.75 -2.992188 7.75 -2.453125 C 7.75 -1.960938 7.613281 -1.519531 7.34375 -1.125 C 7.070312 -0.726562 6.695312 -0.414062 6.21875 -0.1875 C 5.738281 0.03125 5.203125 0.140625 4.609375 0.140625 Z M 4.609375 0.140625 "/></g></g><g style="fill:#1e3a8a;fill-opacity:1;"><g transform="translate(142.896881, 225.343833)"><path style="stroke:none" d="M 0.71875 -6.640625 C 0.457031 -7.671875 0.695312 -8.503906 1.4375 -9.140625 C 2.1875 -9.773438 3.007812 -10.09375 3.90625 -10.09375 C 4.570312 -10.09375 5.164062 -9.894531 5.6875 -9.5 C 6.207031 -9.113281 6.597656 -8.53125 6.859375 -7.75 C 7.078125 -7.082031 7.554688 -6.535156 8.296875 -6.109375 C 9.046875 -5.679688 9.910156 -5.375 10.890625 -5.1875 C 11.878906 -5 12.875 -4.90625 13.875 -4.90625 C 15.882812 -4.90625 17.503906 -5.265625 18.734375 -5.984375 C 19.960938 -6.710938 20.578125 -7.632812 20.578125 -8.75 C 20.578125 -9.53125 20.25 -10.101562 19.59375 -10.46875 C 18.945312 -10.84375 18.09375 -11.101562 17.03125 -11.25 C 15.96875 -11.40625 14.84375 -11.519531 13.65625 -11.59375 C 12.09375 -11.738281 10.554688 -11.921875 9.046875 -12.140625 C 7.546875 -12.367188 6.179688 -12.753906 4.953125 -13.296875 C 3.734375 -13.835938 2.75 -14.632812 2 -15.6875 C 1.257812 -16.75 0.890625 -18.191406 0.890625 -20.015625 C 0.890625 -21.796875 1.410156 -23.351562 2.453125 -24.6875 C 3.492188 -26.03125 4.960938 -27.070312 6.859375 -27.8125 C 8.753906 -28.5625 10.945312 -28.9375 13.4375 -28.9375 C 14.882812 -28.9375 16.441406 -28.796875 18.109375 -28.515625 C 19.785156 -28.234375 21.335938 -27.664062 22.765625 -26.8125 C 24.203125 -25.957031 25.253906 -24.640625 25.921875 -22.859375 C 26.179688 -22.117188 26.160156 -21.457031 25.859375 -20.875 C 25.566406 -20.300781 25.128906 -19.863281 24.546875 -19.5625 C 23.972656 -19.269531 23.390625 -19.125 22.796875 -19.125 C 22.128906 -19.125 21.582031 -19.253906 21.15625 -19.515625 C 20.726562 -19.773438 20.363281 -20.21875 20.0625 -20.84375 C 19.726562 -21.625 19.160156 -22.203125 18.359375 -22.578125 C 17.566406 -22.953125 16.710938 -23.1875 15.796875 -23.28125 C 14.890625 -23.375 14.101562 -23.421875 13.4375 -23.421875 C 11.570312 -23.421875 10.070312 -23.101562 8.9375 -22.46875 C 7.8125 -21.832031 7.25 -20.992188 7.25 -19.953125 C 7.25 -19.066406 7.546875 -18.460938 8.140625 -18.140625 C 8.734375 -17.828125 9.539062 -17.640625 10.5625 -17.578125 C 11.582031 -17.523438 12.726562 -17.425781 14 -17.28125 C 15.550781 -17.09375 17.085938 -16.882812 18.609375 -16.65625 C 20.140625 -16.4375 21.535156 -16.054688 22.796875 -15.515625 C 24.066406 -14.984375 25.070312 -14.1875 25.8125 -13.125 C 26.550781 -12.070312 26.921875 -10.613281 26.921875 -8.75 C 26.921875 -6.925781 26.375 -5.304688 25.28125 -3.890625 C 24.1875 -2.484375 22.660156 -1.390625 20.703125 -0.609375 C 18.753906 0.171875 16.476562 0.5625 13.875 0.5625 C 12.726562 0.5625 11.472656 0.476562 10.109375 0.3125 C 8.753906 0.144531 7.4375 -0.1875 6.15625 -0.6875 C 4.875 -1.195312 3.75 -1.925781 2.78125 -2.875 C 1.820312 -3.820312 1.132812 -5.078125 0.71875 -6.640625 Z M 0.71875 -6.640625 "/></g></g><g style="fill:#1e3a8a;fill-opacity:1;"><g transform="translate(170.599897, 225.343833)"><path style="stroke:none" d="M 15.9375 -4.96875 C 17.019531 -4.96875 18.082031 -5.113281 19.125 -5.40625 C 20.164062 -5.707031 21.128906 -6.207031 22.015625 -6.90625 C 22.867188 -7.6875 23.703125 -8.050781 24.515625 -8 C 25.335938 -7.945312 26.019531 -7.648438 26.5625 -7.109375 C 27.101562 -6.566406 27.375 -5.894531 27.375 -5.09375 C 27.375 -4.300781 26.984375 -3.53125 26.203125 -2.78125 C 24.898438 -1.519531 23.359375 -0.640625 21.578125 -0.140625 C 19.796875 0.359375 17.972656 0.59375 16.109375 0.5625 C 13.210938 0.5625 10.65625 -0.03125 8.4375 -1.21875 C 6.226562 -2.414062 4.5 -4.070312 3.25 -6.1875 C 2.007812 -8.300781 1.390625 -10.753906 1.390625 -13.546875 C 1.390625 -16.597656 1.984375 -19.273438 3.171875 -21.578125 C 4.367188 -23.878906 6.050781 -25.679688 8.21875 -26.984375 C 10.394531 -28.285156 12.96875 -28.9375 15.9375 -28.9375 C 18.914062 -28.9375 21.445312 -28.332031 23.53125 -27.125 C 25.613281 -25.914062 27.203125 -24.222656 28.296875 -22.046875 C 29.390625 -19.867188 29.9375 -17.332031 29.9375 -14.4375 C 29.9375 -13.507812 29.75 -12.71875 29.375 -12.0625 C 29.007812 -11.414062 28.023438 -11.09375 26.421875 -11.09375 L 7.859375 -11.09375 C 8.378906 -9.269531 9.363281 -7.789062 10.8125 -6.65625 C 12.257812 -5.53125 13.96875 -4.96875 15.9375 -4.96875 Z M 16 -23.421875 C 13.84375 -23.421875 12.039062 -22.738281 10.59375 -21.375 C 9.144531 -20.019531 8.21875 -18.25 7.8125 -16.0625 L 24.03125 -16.0625 C 23.84375 -18.25 23.113281 -20.019531 21.84375 -21.375 C 20.582031 -22.738281 18.632812 -23.421875 16 -23.421875 Z M 16 -23.421875 "/></g></g><g style="fill:#1e3a8a;fill-opacity:1;"><g transform="translate(202.985196, 225.343833)"><path style="stroke:none" d="M 15.328125 -5.296875 C 16.179688 -5.773438 16.953125 -5.941406 17.640625 -5.796875 C 18.328125 -5.648438 18.882812 -5.320312 19.3125 -4.8125 C 19.738281 -4.3125 19.953125 -3.726562 19.953125 -3.0625 C 19.953125 -2.582031 19.800781 -2.097656 19.5 -1.609375 C 19.207031 -1.128906 18.75 -0.722656 18.125 -0.390625 C 17.300781 0.0546875 16.554688 0.328125 15.890625 0.421875 C 15.222656 0.515625 14.441406 0.5625 13.546875 0.5625 C 11.128906 0.5625 9.269531 0.0625 7.96875 -0.9375 C 6.664062 -1.945312 5.773438 -3.25 5.296875 -4.84375 C 4.816406 -6.445312 4.578125 -8.140625 4.578125 -9.921875 L 4.578125 -23.078125 L 2.453125 -23.078125 C 1.410156 -23.078125 0.640625 -23.351562 0.140625 -23.90625 C -0.359375 -24.46875 -0.609375 -25.066406 -0.609375 -25.703125 C -0.609375 -26.367188 -0.347656 -26.976562 0.171875 -27.53125 C 0.691406 -28.09375 1.453125 -28.375 2.453125 -28.375 L 4.578125 -28.375 L 4.578125 -33.171875 C 4.578125 -34.140625 4.890625 -34.863281 5.515625 -35.34375 C 6.148438 -35.820312 6.875 -36.0625 7.6875 -36.0625 C 8.46875 -36.0625 9.191406 -35.820312 9.859375 -35.34375 C 10.535156 -34.863281 10.875 -34.140625 10.875 -33.171875 L 10.875 -28.375 L 15.21875 -28.375 C 16.1875 -28.375 16.929688 -28.09375 17.453125 -27.53125 C 17.972656 -26.976562 18.234375 -26.367188 18.234375 -25.703125 C 18.234375 -25.035156 17.972656 -24.429688 17.453125 -23.890625 C 16.929688 -23.347656 16.1875 -23.078125 15.21875 -23.078125 L 10.875 -23.078125 L 10.875 -9.921875 C 10.875 -9.109375 10.925781 -8.316406 11.03125 -7.546875 C 11.144531 -6.785156 11.394531 -6.15625 11.78125 -5.65625 C 12.175781 -5.15625 12.765625 -4.90625 13.546875 -4.90625 C 13.847656 -4.90625 14.171875 -4.953125 14.515625 -5.046875 C 14.867188 -5.140625 15.140625 -5.222656 15.328125 -5.296875 Z M 15.328125 -5.296875 "/></g></g><g style="fill:#1e3a8a;fill-opacity:1;"><g transform="translate(222.326997, 225.343833)"><path style="stroke:none" d="M 27.375 -28.375 C 28.34375 -28.375 29.125 -28.078125 29.71875 -27.484375 C 30.3125 -26.890625 30.609375 -26.144531 30.609375 -25.25 L 30.609375 -2.84375 C 30.609375 -1.914062 30.265625 -1.207031 29.578125 -0.71875 C 28.890625 -0.238281 28.171875 0 27.421875 0 C 26.609375 0 25.875 -0.25 25.21875 -0.75 C 24.570312 -1.25 24.25 -1.96875 24.25 -2.90625 L 24.25 -3.125 C 22.726562 -1.632812 21.148438 -0.644531 19.515625 -0.15625 C 17.878906 0.320312 16.351562 0.5625 14.9375 0.5625 C 11.070312 0.5625 8.0625 -0.65625 5.90625 -3.09375 C 3.75 -5.53125 2.671875 -8.828125 2.671875 -12.984375 L 2.671875 -25.25 C 2.671875 -26.101562 2.945312 -26.835938 3.5 -27.453125 C 4.0625 -28.066406 4.847656 -28.375 5.859375 -28.375 C 6.816406 -28.375 7.582031 -28.066406 8.15625 -27.453125 C 8.738281 -26.835938 9.03125 -26.101562 9.03125 -25.25 L 9.03125 -12.875 C 9.03125 -10.457031 9.578125 -8.539062 10.671875 -7.125 C 11.773438 -5.71875 13.515625 -5.015625 15.890625 -5.015625 C 16.597656 -5.015625 17.425781 -5.207031 18.375 -5.59375 C 19.320312 -5.988281 20.238281 -6.578125 21.125 -7.359375 C 22.019531 -8.140625 22.765625 -9.132812 23.359375 -10.34375 C 23.953125 -11.550781 24.25 -12.972656 24.25 -14.609375 L 24.25 -25.25 C 24.25 -26.144531 24.507812 -26.890625 25.03125 -27.484375 C 25.550781 -28.078125 26.332031 -28.375 27.375 -28.375 Z M 27.375 -28.375 "/></g></g></g></svg>